<svg _ngcontent-ng-c5101862="" width="215" height="14" viewBox="0 0 215 14" fill="none" xmlns="http://www.w3.org/2000/svg">
  <path _ngcontent-ng-c5101862="" fill-rule="evenodd" clip-rule="evenodd" d="M90.9625 1.33047C80.9005 1.78642 70.9566 2.34704 61.2597 2.95995C47.5326 3.82698 33.8109 4.72393 20.1719 6.14407C15.8786 6.59254 11.5188 6.87655 7.25234 7.43714C4.57414 7.78844 1.02292 8.28916 0.556871 8.3938C0.313106 8.45359 0.20676 8.54337 0.172397 8.57327C-0.0692202 8.78255 -0.025134 8.98428 0.111245 9.14124C0.166012 9.20851 0.3045 9.37302 0.68894 9.39544C26.3992 10.9277 52.6893 7.93793 78.4306 7.624C123.071 7.08584 169.064 9.22354 213.35 13.8876C213.736 13.925 214.112 13.7381 214.166 13.4615C214.23 13.1924 213.951 12.9308 213.564 12.8934C169.204 8.2219 123.135 6.07672 78.4091 6.62236C54.4192 6.91386 29.9558 9.53745 5.93256 8.64051C6.48453 8.56577 7.02578 8.491 7.51975 8.42373C11.769 7.86314 16.1106 7.58661 20.3867 7.13814C33.9967 5.71799 47.6905 4.82106 61.3993 3.9615C78.4092 2.88518 96.1599 1.95834 114.05 1.52482C120.451 1.59209 126.829 1.65939 133.208 1.74161C147.007 1.92099 160.87 2.44421 174.637 3.14681C178.782 3.36357 182.927 3.58778 187.072 3.78212C188.447 3.84939 191.991 4.04369 192.485 4.02874C193.097 4.01379 193.215 3.65505 193.226 3.59526C193.258 3.46072 193.236 3.27384 192.936 3.11688C192.903 3.09446 192.71 3.01967 192.281 2.97482C167.249 0.328861 140.521 -0.112062 114.072 0.523267C86.1731 0.246712 58.167 0.127066 30.3391 0C29.9407 0 29.6154 0.224266 29.6121 0.500821C29.61 0.777376 29.931 1.00165 30.3294 1.00912C50.4792 1.09882 70.7311 1.18846 90.9625 1.33047Z" fill="#F7C35F"></path>
</svg>